<svg width="176" height="30" viewBox="0 0 176 30" fill="none" xmlns="http://www.w3.org/2000/svg">
<g clip-path="url(#clip0_368_1034)">
<path d="M175.369 6.10352e-05C175.453 6.10352e-05 175.537 0.0140714 175.622 0.0420922C175.706 0.0701146 175.776 0.126157 175.832 0.210219C175.888 0.266262 175.93 0.336315 175.958 0.420377C175.986 0.47642 176 0.546473 176 0.630535V25.5553C176 25.7234 175.93 25.8776 175.79 26.0177C175.678 26.1297 175.537 26.1858 175.369 26.1858H173.436C173.24 26.1858 173.072 26.2558 172.932 26.3959C172.819 26.508 172.763 26.6481 172.763 26.8163V28.7918C172.763 28.9599 172.693 29.114 172.553 29.2541C172.441 29.3662 172.301 29.4222 172.133 29.4222H169.863C169.695 29.4222 169.541 29.3662 169.401 29.2541C169.289 29.114 169.233 28.9599 169.233 28.7918V26.8163C169.233 26.6481 169.163 26.508 169.023 26.3959C168.911 26.2558 168.756 26.1858 168.56 26.1858H166.963C166.795 26.1858 166.641 26.2558 166.501 26.3959C166.389 26.508 166.333 26.6481 166.333 26.8163V28.7918C166.333 28.9599 166.263 29.114 166.122 29.2541C166.01 29.3662 165.856 29.4222 165.66 29.4222H163.39C163.222 29.4222 163.068 29.3662 162.928 29.2541C162.816 29.114 162.76 28.9599 162.76 28.7918V26.8163C162.76 26.6481 162.69 26.508 162.55 26.3959C162.438 26.2558 162.298 26.1858 162.129 26.1858H160.154C159.986 26.1858 159.832 26.1297 159.692 26.0177C159.579 25.8776 159.523 25.7234 159.523 25.5553V0.630535C159.523 0.462409 159.579 0.322304 159.692 0.210219C159.832 0.0701137 159.986 6.10352e-05 160.154 6.10352e-05H162.424C162.536 6.10352e-05 162.634 0.0280826 162.718 0.0841258C162.83 0.140167 162.914 0.22423 162.97 0.336315C163.054 0.420379 163.096 0.518452 163.096 0.630535V25.2191C163.096 25.3872 163.152 25.5413 163.264 25.6814C163.404 25.7935 163.558 25.8495 163.727 25.8495H165.324C165.464 25.8495 165.576 25.8215 165.66 25.7655C165.772 25.7094 165.856 25.6394 165.912 25.5553C165.968 25.4432 165.996 25.3311 165.996 25.2191V20.0492C165.996 19.881 166.052 19.7409 166.164 19.6288C166.305 19.4887 166.459 19.4187 166.627 19.4187H168.896C169.065 19.4187 169.205 19.4887 169.317 19.6288C169.457 19.7409 169.527 19.881 169.527 20.0492V25.2191C169.527 25.3872 169.583 25.5413 169.695 25.6814C169.835 25.7935 170.003 25.8495 170.199 25.8495H171.797C171.993 25.8495 172.147 25.7935 172.259 25.6814C172.399 25.5413 172.469 25.3872 172.469 25.2191V0.630535C172.469 0.462409 172.525 0.322304 172.637 0.210219C172.777 0.0701137 172.932 6.10352e-05 173.1 6.10352e-05H175.369Z" fill="#0C0C0C"/>
<path d="M140.307 4.20317V12.2732C140.307 12.4694 140.363 12.6375 140.475 12.7776C140.615 12.8897 140.769 12.9458 140.938 12.9458H149.344C149.512 12.9458 149.652 13.0158 149.764 13.1559C149.904 13.268 149.974 13.4081 149.974 13.5762V15.8459C149.974 16.0141 149.904 16.1682 149.764 16.3083C149.652 16.4204 149.512 16.4764 149.344 16.4764H140.938C140.853 16.4764 140.769 16.5044 140.685 16.5605C140.601 16.5885 140.531 16.6305 140.475 16.6866C140.419 16.7426 140.377 16.8127 140.349 16.8967C140.321 16.9808 140.307 17.0649 140.307 17.1489V25.219C140.307 25.3871 140.363 25.5412 140.475 25.6813C140.615 25.7934 140.769 25.8495 140.938 25.8495H152.58C152.748 25.8495 152.889 25.9195 153.001 26.0596C153.141 26.1717 153.211 26.3258 153.211 26.522V28.7917C153.211 28.9598 153.141 29.1139 153.001 29.254C152.889 29.3661 152.748 29.4222 152.58 29.4222H137.365C137.197 29.4222 137.043 29.3661 136.902 29.254C136.79 29.1139 136.734 28.9598 136.734 28.7917V16.8127C136.734 16.6445 136.79 16.5044 136.902 16.3923C137.043 16.2522 137.197 16.1822 137.365 16.1822H139.34C139.508 16.1822 139.649 16.1261 139.761 16.0141C139.901 15.874 139.971 15.7058 139.971 15.5097V13.9125C139.971 13.8004 139.943 13.7023 139.887 13.6183C139.831 13.5062 139.747 13.4221 139.635 13.3661C139.55 13.282 139.452 13.24 139.34 13.24H137.365C137.197 13.24 137.043 13.1839 136.902 13.0718C136.79 12.9317 136.734 12.7776 136.734 12.6095V0.630474C136.734 0.518391 136.762 0.420318 136.818 0.336254C136.874 0.224169 136.945 0.140106 137.029 0.0840647C137.141 0.0280216 137.253 0 137.365 0H152.58C152.748 0 152.889 0.0700527 153.001 0.210158C153.141 0.322243 153.211 0.462348 153.211 0.630474V2.90019C153.211 3.01227 153.183 3.12435 153.127 3.23644C153.071 3.3205 152.987 3.40457 152.875 3.48863C152.79 3.54467 152.692 3.57269 152.58 3.57269H140.938C140.769 3.57269 140.615 3.64275 140.475 3.78285C140.363 3.89494 140.307 4.03504 140.307 4.20317Z" fill="#0C0C0C"/>
<path d="M123.949 4.20317V25.219C123.949 25.3871 124.005 25.5412 124.117 25.6813C124.257 25.7934 124.425 25.8495 124.621 25.8495H129.791C129.959 25.8495 130.099 25.9195 130.212 26.0596C130.352 26.1717 130.422 26.3258 130.422 26.522V28.7917C130.422 28.9598 130.352 29.1139 130.212 29.254C130.099 29.3661 129.959 29.4222 129.791 29.4222H124.285C124.117 29.4222 123.963 29.3661 123.823 29.254C123.711 29.1139 123.655 28.9598 123.655 28.7917V26.8162C123.655 26.6481 123.585 26.508 123.444 26.3959C123.332 26.2558 123.178 26.1857 122.982 26.1857H121.385C121.217 26.1857 121.063 26.2558 120.923 26.3959C120.81 26.508 120.754 26.6481 120.754 26.8162V28.7917C120.754 28.9598 120.684 29.1139 120.544 29.254C120.432 29.3661 120.278 29.4222 120.082 29.4222H114.576C114.408 29.4222 114.254 29.3661 114.113 29.254C114.001 29.1139 113.945 28.9598 113.945 28.7917V26.522C113.945 26.3258 114.001 26.1717 114.113 26.0596C114.254 25.9195 114.408 25.8495 114.576 25.8495H119.746C119.942 25.8495 120.096 25.7934 120.208 25.6813C120.348 25.5412 120.418 25.3871 120.418 25.219V4.20317C120.418 4.09108 120.39 3.99301 120.334 3.90894C120.278 3.79686 120.194 3.7128 120.082 3.65676C119.998 3.60071 119.886 3.57269 119.746 3.57269H114.576C114.408 3.57269 114.254 3.51665 114.113 3.40457C114.001 3.26446 113.945 3.09633 113.945 2.90019V0.630474C113.945 0.518391 113.973 0.420318 114.029 0.336254C114.085 0.224169 114.155 0.140106 114.24 0.0840647C114.352 0.0280216 114.464 0 114.576 0H120.082C120.278 0 120.432 0.0700527 120.544 0.210158C120.684 0.322243 120.754 0.462348 120.754 0.630474V2.60596C120.754 2.77409 120.81 2.92821 120.923 3.06831C121.063 3.1804 121.217 3.23644 121.385 3.23644H122.982C123.178 3.23644 123.332 3.1804 123.444 3.06831C123.585 2.92821 123.655 2.77409 123.655 2.60596V0.630474C123.655 0.518391 123.683 0.420318 123.739 0.336254C123.795 0.224169 123.865 0.140106 123.949 0.0840647C124.061 0.0280216 124.173 0 124.285 0H129.791C129.959 0 130.099 0.0700527 130.212 0.210158C130.352 0.322243 130.422 0.462348 130.422 0.630474V2.90019C130.422 3.01227 130.394 3.12435 130.338 3.23644C130.282 3.3205 130.198 3.40457 130.085 3.48863C130.001 3.54467 129.903 3.57269 129.791 3.57269H124.621C124.425 3.57269 124.257 3.64275 124.117 3.78285C124.005 3.89494 123.949 4.03504 123.949 4.20317Z" fill="#0C0C0C"/>
<path d="M107.002 0C107.17 0 107.31 0.0700527 107.423 0.210158C107.563 0.322243 107.633 0.462348 107.633 0.630474V22.3188C107.633 22.4869 107.563 22.6411 107.423 22.7812C107.31 22.8932 107.17 22.9493 107.002 22.9493H105.069C104.873 22.9493 104.704 23.0193 104.564 23.1594C104.452 23.2715 104.396 23.4256 104.396 23.6218V25.5553C104.396 25.7234 104.326 25.8775 104.186 26.0176C104.074 26.1297 103.934 26.1857 103.766 26.1857H101.832C101.72 26.1857 101.608 26.2137 101.496 26.2698C101.412 26.3258 101.328 26.4099 101.244 26.522C101.188 26.606 101.16 26.7041 101.16 26.8162V28.7917C101.16 28.9598 101.09 29.1139 100.95 29.254C100.838 29.3661 100.697 29.4222 100.529 29.4222H98.2596C98.0915 29.4222 97.9374 29.3661 97.7973 29.254C97.6852 29.1139 97.6291 28.9598 97.6291 28.7917V26.8162C97.6291 26.6481 97.5591 26.508 97.419 26.3959C97.3069 26.2558 97.1528 26.1857 96.9566 26.1857H95.0232C94.9111 26.1857 94.799 26.1577 94.6869 26.1017C94.6028 26.0456 94.5328 25.9756 94.4768 25.8915C94.4207 25.7794 94.3927 25.6673 94.3927 25.5553V23.6218C94.3927 23.4817 94.3647 23.3696 94.3086 23.2855C94.2526 23.1735 94.1685 23.0894 94.0564 23.0334C93.9724 22.9773 93.8743 22.9493 93.7622 22.9493H91.7867C91.6186 22.9493 91.4645 22.8932 91.3244 22.7812C91.2123 22.6411 91.1562 22.4869 91.1562 22.3188V0.630474C91.1562 0.518391 91.1843 0.420318 91.2403 0.336254C91.2964 0.224169 91.3664 0.140106 91.4505 0.0840647C91.5626 0.0280216 91.6746 0 91.7867 0H94.0564C94.2526 0 94.4067 0.0700527 94.5188 0.210158C94.6589 0.322243 94.7289 0.462348 94.7289 0.630474V21.9826C94.7289 22.1507 94.785 22.3048 94.8971 22.4449C95.0372 22.557 95.1913 22.613 95.3594 22.613H97.2929C97.489 22.613 97.6431 22.6831 97.7552 22.8232C97.8953 22.9353 97.9654 23.0894 97.9654 23.2855V25.219C97.9654 25.3871 98.0214 25.5412 98.1335 25.6813C98.2736 25.7934 98.4277 25.8495 98.5959 25.8495H100.193C100.389 25.8495 100.543 25.7934 100.655 25.6813C100.796 25.5412 100.866 25.3871 100.866 25.219V23.2855C100.866 23.0894 100.922 22.9353 101.034 22.8232C101.174 22.6831 101.328 22.613 101.496 22.613H103.43C103.626 22.613 103.78 22.557 103.892 22.4449C104.032 22.3048 104.102 22.1507 104.102 21.9826V0.630474C104.102 0.462348 104.158 0.322243 104.27 0.210158C104.41 0.0700527 104.564 0 104.732 0H107.002Z" fill="#0C0C0C"/>
<path d="M84.2129 0C84.297 0 84.381 0.0140104 84.4651 0.0420311C84.5491 0.0700535 84.6192 0.126096 84.6752 0.210158C84.7313 0.266201 84.7733 0.336254 84.8013 0.420316C84.8294 0.476359 84.8434 0.546412 84.8434 0.630474V25.5553C84.8434 25.7234 84.7733 25.8775 84.6332 26.0176C84.5211 26.1297 84.381 26.1857 84.2129 26.1857H82.2794C82.0833 26.1857 81.9152 26.2558 81.7751 26.3959C81.663 26.508 81.6069 26.6481 81.6069 26.8162V28.7917C81.6069 28.9598 81.5369 29.1139 81.3968 29.254C81.2847 29.3661 81.1446 29.4222 80.9765 29.4222H78.7067C78.5386 29.4222 78.3845 29.3661 78.2444 29.254C78.1323 29.1139 78.0763 28.9598 78.0763 28.7917V26.8162C78.0763 26.6481 78.0062 26.508 77.8661 26.3959C77.754 26.2558 77.5999 26.1857 77.4038 26.1857H75.8066C75.6384 26.1857 75.4843 26.2558 75.3442 26.3959C75.2321 26.508 75.1761 26.6481 75.1761 26.8162V28.7917C75.1761 28.9598 75.106 29.1139 74.9659 29.254C74.8538 29.3661 74.6997 29.4222 74.5036 29.4222H72.2339C72.0657 29.4222 71.9116 29.3661 71.7715 29.254C71.6594 29.1139 71.6034 28.9598 71.6034 28.7917V26.8162C71.6034 26.6481 71.5333 26.508 71.3932 26.3959C71.2811 26.2558 71.141 26.1857 70.9729 26.1857H68.9974C68.8293 26.1857 68.6752 26.1297 68.5351 26.0176C68.423 25.8775 68.3669 25.7234 68.3669 25.5553V0.630474C68.3669 0.462348 68.423 0.322243 68.5351 0.210158C68.6752 0.0700527 68.8293 0 68.9974 0H71.2671C71.3792 0 71.4773 0.0280216 71.5614 0.0840647C71.6734 0.140106 71.7575 0.224169 71.8135 0.336254C71.8976 0.420318 71.9396 0.518391 71.9396 0.630474V25.219C71.9396 25.3871 71.9957 25.5412 72.1078 25.6813C72.2479 25.7934 72.402 25.8495 72.5701 25.8495H74.1673C74.3074 25.8495 74.4195 25.8215 74.5036 25.7654C74.6157 25.7094 74.6997 25.6393 74.7558 25.5553C74.8118 25.4432 74.8398 25.3311 74.8398 25.219V20.0491C74.8398 19.881 74.8959 19.7409 75.0079 19.6288C75.1481 19.4887 75.3022 19.4186 75.4703 19.4186H77.74C77.9081 19.4186 78.0482 19.4887 78.1603 19.6288C78.3004 19.7409 78.3705 19.881 78.3705 20.0491V25.219C78.3705 25.3871 78.4265 25.5412 78.5386 25.6813C78.6787 25.7934 78.8468 25.8495 79.043 25.8495H80.6402C80.8363 25.8495 80.9905 25.7934 81.1025 25.6813C81.2427 25.5412 81.3127 25.3871 81.3127 25.219V0.630474C81.3127 0.462348 81.3687 0.322243 81.4808 0.210158C81.6209 0.0700527 81.7751 0 81.9432 0H84.2129Z" fill="#0C0C0C"/>
<path d="M61.4243 3.2365C61.5924 3.2365 61.7325 3.30655 61.8446 3.44666C61.9847 3.55874 62.0548 3.69885 62.0548 3.86697V25.5553C62.0548 25.7234 61.9847 25.8776 61.8446 26.0177C61.7325 26.1297 61.5924 26.1858 61.4243 26.1858H59.4909C59.3788 26.1858 59.2667 26.2138 59.1546 26.2699C59.0705 26.3259 58.9865 26.41 58.9024 26.522C58.8464 26.6061 58.8184 26.7042 58.8184 26.8163V28.7918C58.8184 28.9599 58.7483 29.114 58.6082 29.2541C58.4961 29.3662 58.356 29.4222 58.1879 29.4222H49.4453C49.2772 29.4222 49.123 29.3662 48.9829 29.2541C48.8709 29.114 48.8148 28.9599 48.8148 28.7918V26.8163C48.8148 26.7042 48.7868 26.6061 48.7307 26.522C48.6747 26.41 48.5906 26.3259 48.4786 26.2699C48.3945 26.2138 48.2964 26.1858 48.1843 26.1858H46.2088C46.0407 26.1858 45.8866 26.1297 45.7465 26.0177C45.6344 25.8776 45.5784 25.7234 45.5784 25.5553V3.86697C45.5784 3.69885 45.6344 3.55874 45.7465 3.44666C45.8866 3.30655 46.0407 3.2365 46.2088 3.2365H48.1843C48.3525 3.2365 48.4926 3.18046 48.6047 3.06837C48.7448 2.92827 48.8148 2.77415 48.8148 2.60603V0.630535C48.8148 0.462409 48.8709 0.322304 48.9829 0.210219C49.123 0.0701137 49.2772 6.10352e-05 49.4453 6.10352e-05H58.1879C58.356 6.10352e-05 58.4961 0.0701137 58.6082 0.210219C58.7483 0.322304 58.8184 0.462409 58.8184 0.630535V2.60603C58.8184 2.77415 58.8744 2.92827 58.9865 3.06837C59.1266 3.18046 59.2947 3.2365 59.4909 3.2365H61.4243ZM58.5241 25.2191V4.20323C58.5241 4.09114 58.4961 3.99307 58.4401 3.90901C58.384 3.79692 58.3 3.71286 58.1879 3.65682C58.0758 3.60077 57.9637 3.57275 57.8516 3.57275H49.7815C49.6134 3.57275 49.4593 3.64281 49.3192 3.78291C49.2071 3.895 49.1511 4.0351 49.1511 4.20323V25.2191C49.1511 25.3872 49.2071 25.5413 49.3192 25.6814C49.4593 25.7935 49.6134 25.8495 49.7815 25.8495H57.8516C58.0478 25.8495 58.2019 25.7935 58.314 25.6814C58.4541 25.5413 58.5241 25.3872 58.5241 25.2191Z" fill="#0C0C0C"/>
<path d="M38.635 3.23644C38.8031 3.23644 38.9432 3.30649 39.0553 3.4466C39.1954 3.55868 39.2655 3.69879 39.2655 3.86691V12.6095C39.2655 12.7776 39.1954 12.9317 39.0553 13.0718C38.9432 13.1839 38.8031 13.24 38.635 13.24H36.7015C36.5054 13.24 36.3373 13.31 36.1972 13.4501C36.0851 13.5622 36.029 13.7163 36.029 13.9125V15.5097C36.029 15.7058 36.0851 15.874 36.1972 16.0141C36.3373 16.1261 36.5054 16.1822 36.7015 16.1822H38.635C38.8031 16.1822 38.9432 16.2522 39.0553 16.3923C39.1954 16.5044 39.2655 16.6445 39.2655 16.8127V28.7917C39.2655 28.9598 39.1954 29.1139 39.0553 29.254C38.9432 29.3661 38.8031 29.4222 38.635 29.4222H36.3653C36.1972 29.4222 36.043 29.3661 35.9029 29.254C35.7909 29.1139 35.7348 28.9598 35.7348 28.7917V17.1489C35.7348 16.9528 35.6648 16.7987 35.5247 16.6866C35.4126 16.5465 35.2585 16.4764 35.0623 16.4764H26.9922C26.9082 16.4764 26.8241 16.5044 26.74 16.5605C26.656 16.5885 26.5859 16.6305 26.5299 16.6866C26.4738 16.7426 26.4318 16.8127 26.4038 16.8967C26.3758 16.9808 26.3618 17.0649 26.3618 17.1489V28.7917C26.3618 28.9598 26.2917 29.1139 26.1516 29.254C26.0395 29.3661 25.8854 29.4222 25.6892 29.4222H23.4195C23.2514 29.4222 23.0973 29.3661 22.9572 29.254C22.8451 29.1139 22.7891 28.9598 22.7891 28.7917V16.8127C22.7891 16.6445 22.8451 16.5044 22.9572 16.3923C23.0973 16.2522 23.2514 16.1822 23.4195 16.1822H25.395C25.5632 16.1822 25.7033 16.1261 25.8153 16.0141C25.9554 15.874 26.0255 15.7058 26.0255 15.5097V13.9125C26.0255 13.8004 25.9975 13.7023 25.9414 13.6183C25.8854 13.5062 25.8013 13.4221 25.6892 13.3661C25.6052 13.282 25.5071 13.24 25.395 13.24H23.4195C23.2514 13.24 23.0973 13.1839 22.9572 13.0718C22.8451 12.9317 22.7891 12.7776 22.7891 12.6095V0.630474C22.7891 0.518391 22.8171 0.420318 22.8731 0.336254C22.9292 0.224169 22.9992 0.140106 23.0833 0.0840647C23.1954 0.0280216 23.3075 0 23.4195 0H35.3986C35.5667 0 35.7068 0.0700527 35.8189 0.210158C35.959 0.322243 36.029 0.462348 36.029 0.630474V2.60596C36.029 2.77409 36.0851 2.92821 36.1972 3.06831C36.3373 3.1804 36.5054 3.23644 36.7015 3.23644H38.635ZM35.7348 12.2732V4.20317C35.7348 4.09108 35.7068 3.99301 35.6508 3.90894C35.5947 3.79686 35.5107 3.7128 35.3986 3.65676C35.2865 3.60071 35.1744 3.57269 35.0623 3.57269H26.9922C26.8241 3.57269 26.67 3.64275 26.5299 3.78285C26.4178 3.89494 26.3618 4.03504 26.3618 4.20317V12.2732C26.3618 12.4694 26.4178 12.6375 26.5299 12.7776C26.67 12.8897 26.8241 12.9458 26.9922 12.9458H35.0623C35.2585 12.9458 35.4126 12.8897 35.5247 12.7776C35.6648 12.6375 35.7348 12.4694 35.7348 12.2732Z" fill="#0C0C0C"/>
<path d="M13.5762 6.80913C13.4922 6.80913 13.4081 6.79512 13.324 6.7671C13.24 6.71106 13.1699 6.65501 13.1139 6.59897C13.0578 6.54293 13.0158 6.47288 12.9878 6.38881C12.9598 6.30475 12.9458 6.22069 12.9458 6.13662V4.20317C12.9458 4.03504 12.8757 3.89494 12.7356 3.78285C12.6235 3.64275 12.4694 3.57269 12.2732 3.57269H4.20317C4.03504 3.57269 3.88093 3.64275 3.74082 3.78285C3.62873 3.89494 3.57269 4.03504 3.57269 4.20317V25.219C3.57269 25.3871 3.62873 25.5412 3.74082 25.6813C3.88093 25.7934 4.03504 25.8495 4.20317 25.8495H12.2732C12.4694 25.8495 12.6235 25.7934 12.7356 25.6813C12.8757 25.5412 12.9458 25.3871 12.9458 25.219V17.1489C12.9458 16.9528 12.8757 16.7987 12.7356 16.6866C12.6235 16.5465 12.4694 16.4764 12.2732 16.4764H8.74259C8.54644 16.4764 8.37831 16.4204 8.23821 16.3083C8.12612 16.1682 8.07008 16.0141 8.07008 15.8459V13.5762C8.07008 13.4641 8.0981 13.3661 8.15415 13.282C8.21019 13.1699 8.29425 13.0859 8.40633 13.0298C8.51842 12.9738 8.6305 12.9458 8.74259 12.9458H12.6095C12.7776 12.9458 12.9177 13.0158 13.0298 13.1559C13.1699 13.268 13.24 13.4081 13.24 13.5762V15.5097C13.24 15.7058 13.296 15.874 13.4081 16.0141C13.5482 16.1261 13.7163 16.1822 13.9125 16.1822H15.8459C16.0141 16.1822 16.1542 16.2522 16.2663 16.3923C16.4064 16.5044 16.4764 16.6445 16.4764 16.8127V25.5553C16.4764 25.7234 16.4064 25.8775 16.2663 26.0176C16.1542 26.1297 16.0141 26.1857 15.8459 26.1857H13.9125C13.7163 26.1857 13.5482 26.2558 13.4081 26.3959C13.296 26.508 13.24 26.6481 13.24 26.8162V28.7917C13.24 28.9598 13.1699 29.1139 13.0298 29.254C12.9177 29.3661 12.7776 29.4222 12.6095 29.4222H3.86691C3.69879 29.4222 3.54467 29.3661 3.40457 29.254C3.29248 29.1139 3.23644 28.9598 3.23644 28.7917V26.8162C3.23644 26.6481 3.16639 26.508 3.02628 26.3959C2.9142 26.2558 2.77409 26.1857 2.60596 26.1857H0.630475C0.518391 26.1857 0.406306 26.1577 0.294222 26.1017C0.210158 26.0456 0.140106 25.9756 0.0840633 25.8915C0.0280211 25.7794 0 25.6673 0 25.5553V3.86691C0 3.75483 0.0280211 3.65676 0.0840633 3.57269C0.140106 3.46061 0.210158 3.37654 0.294222 3.3205C0.406306 3.26446 0.518391 3.23644 0.630475 3.23644H2.60596C2.77409 3.23644 2.9142 3.1804 3.02628 3.06831C3.16639 2.92821 3.23644 2.77409 3.23644 2.60596V0.630474C3.23644 0.462348 3.29248 0.322243 3.40457 0.210158C3.54467 0.0700527 3.69879 0 3.86691 0H12.6095C12.7776 0 12.9177 0.0700527 13.0298 0.210158C13.1699 0.322243 13.24 0.462348 13.24 0.630474V2.60596C13.24 2.77409 13.296 2.92821 13.4081 3.06831C13.5482 3.1804 13.7163 3.23644 13.9125 3.23644H15.8459C16.0141 3.23644 16.1542 3.30649 16.2663 3.4466C16.4064 3.55868 16.4764 3.69879 16.4764 3.86691V6.13662C16.4764 6.33277 16.4064 6.5009 16.2663 6.641C16.1542 6.75309 16.0141 6.80913 15.8459 6.80913H13.5762Z" fill="#0C0C0C"/>
</g>
<defs>
<clipPath id="clip0_368_1034">
<rect width="176" height="29.8571" fill="white"/>
</clipPath>
</defs>
</svg>
